<mxfile host="drawio-plugin" modified="2025-03-01T15:57:29.712Z" agent="5.0 (Windows NT 6.2; Win64; x64) AppleWebKit/537.36 (KHTML, like Gecko) Chrome/104.0.5112.102 Safari/537.36" etag="8qB0mf0EfYtqzpweeGXb" version="20.5.3" type="embed"><diagram id="23iRSUPoRavnBvh4doch" name="Page-1"><mxGraphModel dx="-2255" dy="-2903" grid="1" gridSize="10" guides="1" tooltips="1" connect="1" arrows="1" fold="1" page="1" pageScale="1" pageWidth="827" pageHeight="1169" math="0" shadow="0"><root><mxCell id="0"/><mxCell id="1" parent="0"/><mxCell id="2" style="edgeStyle=orthogonalEdgeStyle;rounded=0;orthogonalLoop=1;jettySize=auto;html=1;entryX=0;entryY=0.5;entryDx=0;entryDy=0;endArrow=none;startFill=0;" edge="1" parent="1"><mxGeometry relative="1" as="geometry"><mxPoint x="3145.09" y="4530" as="sourcePoint"/><mxPoint x="3395.09" y="4530" as="targetPoint"/></mxGeometry></mxCell><mxCell id="3" value="User" style="shape=umlActor;verticalLabelPosition=bottom;verticalAlign=top;html=1;outlineConnect=0;" vertex="1" parent="1"><mxGeometry x="3105.09" y="4490" width="35" height="70" as="geometry"/></mxCell><mxCell id="4" value=":Frontend" style="rounded=0;whiteSpace=wrap;html=1;" vertex="1" parent="1"><mxGeometry x="3384.1800000000003" y="4505" width="130.91" height="40" as="geometry"/></mxCell><mxCell id="5" value="" style="endArrow=classic;html=1;rounded=0;" edge="1" parent="1"><mxGeometry width="50" height="50" relative="1" as="geometry"><mxPoint x="3155.09" y="4515" as="sourcePoint"/><mxPoint x="3375.09" y="4515" as="targetPoint"/></mxGeometry></mxCell><mxCell id="6" value="" style="endArrow=classic;html=1;rounded=0;dashed=1;" edge="1" parent="1"><mxGeometry width="50" height="50" relative="1" as="geometry"><mxPoint x="3365.09" y="4545" as="sourcePoint"/><mxPoint x="3155.09" y="4545" as="targetPoint"/></mxGeometry></mxCell><mxCell id="7" value="&amp;nbsp;:Router" style="rounded=0;whiteSpace=wrap;html=1;" vertex="1" parent="1"><mxGeometry x="3845.09" y="4505" width="130.91" height="40" as="geometry"/></mxCell><mxCell id="8" style="edgeStyle=orthogonalEdgeStyle;rounded=0;orthogonalLoop=1;jettySize=auto;html=1;entryX=0;entryY=0.5;entryDx=0;entryDy=0;endArrow=none;startFill=0;" edge="1" parent="1" target="7"><mxGeometry relative="1" as="geometry"><mxPoint x="3525.09" y="4525" as="sourcePoint"/><mxPoint x="3841" y="4525" as="targetPoint"/></mxGeometry></mxCell><mxCell id="9" value="" style="endArrow=classic;html=1;rounded=0;" edge="1" parent="1"><mxGeometry width="50" height="50" relative="1" as="geometry"><mxPoint x="3535.09" y="4510" as="sourcePoint"/><mxPoint x="3835.09" y="4510" as="targetPoint"/></mxGeometry></mxCell><mxCell id="10" value=":ClassController&amp;nbsp;" style="rounded=0;whiteSpace=wrap;html=1;" vertex="1" parent="1"><mxGeometry x="4336" y="4505" width="130.91" height="40" as="geometry"/></mxCell><mxCell id="11" style="edgeStyle=orthogonalEdgeStyle;rounded=0;orthogonalLoop=1;jettySize=auto;html=1;entryX=0;entryY=0.5;entryDx=0;entryDy=0;endArrow=none;startFill=0;" edge="1" parent="1" target="10"><mxGeometry relative="1" as="geometry"><mxPoint x="3976" y="4525" as="sourcePoint"/><mxPoint x="4181" y="4525" as="targetPoint"/></mxGeometry></mxCell><mxCell id="12" value="" style="endArrow=classic;html=1;rounded=0;dashed=1;" edge="1" parent="1"><mxGeometry width="50" height="50" relative="1" as="geometry"><mxPoint x="4315.09" y="4540" as="sourcePoint"/><mxPoint x="3995.09" y="4540" as="targetPoint"/></mxGeometry></mxCell><mxCell id="13" value=":ClassService&amp;nbsp;" style="rounded=0;whiteSpace=wrap;html=1;" vertex="1" parent="1"><mxGeometry x="4796" y="4505" width="130.91" height="40" as="geometry"/></mxCell><mxCell id="14" style="edgeStyle=orthogonalEdgeStyle;rounded=0;orthogonalLoop=1;jettySize=auto;html=1;entryX=0;entryY=0.5;entryDx=0;entryDy=0;endArrow=none;startFill=0;" edge="1" parent="1" target="13"><mxGeometry relative="1" as="geometry"><mxPoint x="4466.91" y="4525" as="sourcePoint"/><mxPoint x="4671.91" y="4525" as="targetPoint"/></mxGeometry></mxCell><mxCell id="15" value="" style="endArrow=classic;html=1;rounded=0;" edge="1" parent="1"><mxGeometry width="50" height="50" relative="1" as="geometry"><mxPoint x="4491.91" y="4510" as="sourcePoint"/><mxPoint x="4786" y="4510" as="targetPoint"/></mxGeometry></mxCell><mxCell id="16" value="" style="endArrow=classic;html=1;rounded=0;dashed=1;" edge="1" parent="1"><mxGeometry width="50" height="50" relative="1" as="geometry"><mxPoint x="4786" y="4540" as="sourcePoint"/><mxPoint x="4486" y="4540" as="targetPoint"/></mxGeometry></mxCell><mxCell id="17" style="edgeStyle=orthogonalEdgeStyle;rounded=0;orthogonalLoop=1;jettySize=auto;html=1;endArrow=none;startFill=0;" edge="1" parent="1" source="18"><mxGeometry relative="1" as="geometry"><mxPoint x="5676" y="4525" as="targetPoint"/></mxGeometry></mxCell><mxCell id="18" value=":ClassRepository" style="rounded=0;whiteSpace=wrap;html=1;" vertex="1" parent="1"><mxGeometry x="5136" y="4505" width="130.91" height="40" as="geometry"/></mxCell><mxCell id="19" style="edgeStyle=orthogonalEdgeStyle;rounded=0;orthogonalLoop=1;jettySize=auto;html=1;entryX=0;entryY=0.5;entryDx=0;entryDy=0;endArrow=none;startFill=0;" edge="1" parent="1" target="18"><mxGeometry relative="1" as="geometry"><mxPoint x="4926.91" y="4525" as="sourcePoint"/><mxPoint x="5131.91" y="4525" as="targetPoint"/></mxGeometry></mxCell><mxCell id="20" value="" style="endArrow=classic;html=1;rounded=0;" edge="1" parent="1"><mxGeometry width="50" height="50" relative="1" as="geometry"><mxPoint x="4951.91" y="4510" as="sourcePoint"/><mxPoint x="5111.91" y="4510" as="targetPoint"/></mxGeometry></mxCell><mxCell id="21" value="" style="endArrow=classic;html=1;rounded=0;dashed=1;" edge="1" parent="1"><mxGeometry width="50" height="50" relative="1" as="geometry"><mxPoint x="5116" y="4540" as="sourcePoint"/><mxPoint x="4956" y="4540" as="targetPoint"/></mxGeometry></mxCell><mxCell id="22" value="1. GET /api/classes?admin=true &amp;lt;&amp;lt;Step 1&amp;gt;&amp;gt;&lt;div&gt;&lt;div&gt;17. GET /api/courses?classID={classID} &amp;lt;&amp;lt;Step 4&amp;gt;&amp;gt;&lt;/div&gt;&lt;div&gt;35. DELETE /api/courses?courseID={courseID} &amp;lt;&amp;lt;Step 9&amp;gt;&amp;gt;&lt;/div&gt;&lt;/div&gt;" style="text;html=1;align=center;verticalAlign=middle;resizable=0;points=[];autosize=1;strokeColor=none;fillColor=none;" vertex="1" parent="1"><mxGeometry x="3509.55" y="4445" width="340" height="60" as="geometry"/></mxCell><mxCell id="23" value="&amp;nbsp;:Database" style="rounded=0;whiteSpace=wrap;html=1;" vertex="1" parent="1"><mxGeometry x="5665.09" y="4510" width="130.91" height="40" as="geometry"/></mxCell><mxCell id="24" value="&lt;div&gt;Delete Course&lt;/div&gt;" style="text;html=1;align=center;verticalAlign=middle;whiteSpace=wrap;rounded=0;fontSize=20;" vertex="1" parent="1"><mxGeometry x="4871.09" y="4080" width="345" height="30" as="geometry"/></mxCell><mxCell id="25" value="16. เลือก class ที่ต้องการ &amp;lt;&amp;lt;Step 3&amp;gt;&amp;gt;&lt;div&gt;&lt;div&gt;&lt;div&gt;32. เลือก course ที่ต้องการ &amp;lt;&amp;lt;Step 6&amp;gt;&amp;gt;&lt;/div&gt;&lt;/div&gt;&lt;/div&gt;&lt;div&gt;33. กดปุ่มลบ course &amp;lt;&amp;lt;Step 7&amp;gt;&amp;gt;&lt;/div&gt;&lt;div&gt;34. กดปุ่มยืนยันการลบ course &amp;lt;&amp;lt;Step 8&amp;gt;&amp;gt;&lt;/div&gt;" style="text;html=1;align=center;verticalAlign=middle;resizable=0;points=[];autosize=1;strokeColor=none;fillColor=none;" vertex="1" parent="1"><mxGeometry x="3150.09" y="4435" width="240" height="70" as="geometry"/></mxCell><mxCell id="26" value="" style="endArrow=classic;html=1;rounded=0;dashed=1;entryX=0.269;entryY=-0.044;entryDx=0;entryDy=0;entryPerimeter=0;" edge="1" parent="1"><mxGeometry width="50" height="50" relative="1" as="geometry"><mxPoint x="3835.09" y="4541" as="sourcePoint"/><mxPoint x="3534.620000000001" y="4541.04" as="targetPoint"/></mxGeometry></mxCell><mxCell id="27" value="" style="endArrow=classic;html=1;rounded=0;" edge="1" parent="1"><mxGeometry width="50" height="50" relative="1" as="geometry"><mxPoint x="5286" y="4509.38" as="sourcePoint"/><mxPoint x="5656" y="4510" as="targetPoint"/></mxGeometry></mxCell><mxCell id="28" value="" style="endArrow=classic;html=1;rounded=0;dashed=1;" edge="1" parent="1"><mxGeometry width="50" height="50" relative="1" as="geometry"><mxPoint x="5646" y="4540" as="sourcePoint"/><mxPoint x="5286" y="4540" as="targetPoint"/></mxGeometry></mxCell><mxCell id="29" value="&amp;nbsp;" style="text;html=1;align=center;verticalAlign=middle;resizable=0;points=[];autosize=1;strokeColor=none;fillColor=none;" vertex="1" parent="1"><mxGeometry x="4075.09" y="4555" width="30" height="30" as="geometry"/></mxCell><mxCell id="30" value="&lt;div&gt;&lt;span style=&quot;background-color: transparent; color: light-dark(rgb(0, 0, 0), rgb(255, 255, 255));&quot;&gt;14. reponse (classList or error)&lt;/span&gt;&lt;/div&gt;&lt;div&gt;30. response(courseList or rerror)&lt;/div&gt;&lt;div&gt;65. successResponse(200, &quot;ลบ course สำเร็จ&quot;)&lt;/div&gt;" style="text;html=1;align=center;verticalAlign=middle;resizable=0;points=[];autosize=1;strokeColor=none;fillColor=none;" vertex="1" parent="1"><mxGeometry x="3525.09" y="4575" width="270" height="60" as="geometry"/></mxCell><mxCell id="31" value="15. displayClassList(classList)&lt;div&gt;31. displayCoursesList(courseList)&lt;/div&gt;&lt;div&gt;66. displayMessage(&quot;ลบ course สำเร็จ&quot;)&lt;/div&gt;" style="text;html=1;align=center;verticalAlign=middle;resizable=0;points=[];autosize=1;strokeColor=none;fillColor=none;" vertex="1" parent="1"><mxGeometry x="3155.09" y="4565" width="230" height="60" as="geometry"/></mxCell><mxCell id="32" style="edgeStyle=orthogonalEdgeStyle;rounded=0;orthogonalLoop=1;jettySize=auto;html=1;entryX=0.5;entryY=1;entryDx=0;entryDy=0;endArrow=none;startFill=0;" edge="1" parent="1" source="33"><mxGeometry relative="1" as="geometry"><mxPoint x="3909.1800000000003" y="4545" as="targetPoint"/></mxGeometry></mxCell><mxCell id="33" value="&amp;nbsp;:Middleware" style="rounded=0;whiteSpace=wrap;html=1;" vertex="1" parent="1"><mxGeometry x="3844.1800000000003" y="4780" width="130.91" height="40" as="geometry"/></mxCell><mxCell id="34" value="" style="endArrow=classic;html=1;rounded=0;" edge="1" parent="1"><mxGeometry width="50" height="50" relative="1" as="geometry"><mxPoint x="3894.09" y="4570" as="sourcePoint"/><mxPoint x="3894.1800000000003" y="4770" as="targetPoint"/></mxGeometry></mxCell><mxCell id="35" value="" style="endArrow=classic;html=1;rounded=0;dashed=1;" edge="1" parent="1"><mxGeometry width="50" height="50" relative="1" as="geometry"><mxPoint x="3924.1800000000003" y="4770" as="sourcePoint"/><mxPoint x="3924.1800000000003" y="4570" as="targetPoint"/></mxGeometry></mxCell><mxCell id="36" value="2.&amp;nbsp;&lt;span style=&quot;color: rgba(0, 0, 0, 0); font-family: monospace; font-size: 0px; text-align: start;&quot;&gt;%3CmxGraphModel%3E%3Croot%3E%3CmxCell%20id%3D%220%22%2F%3E%3CmxCell%20id%3D%221%22%20parent%3D%220%22%2F%3E%3CmxCell%20id%3D%222%22%20style%3D%22edgeStyle%3DorthogonalEdgeStyle%3Brounded%3D0%3BorthogonalLoop%3D1%3BjettySize%3Dauto%3Bhtml%3D1%3BentryX%3D0%3BentryY%3D0.5%3BentryDx%3D0%3BentryDy%3D0%3BendArrow%3Dnone%3BstartFill%3D0%3B%22%20edge%3D%221%22%20parent%3D%221%22%3E%3CmxGeometry%20relative%3D%221%22%20as%3D%22geometry%22%3E%3CmxPoint%20x%3D%22-2250%22%20y%3D%222240%22%20as%3D%22sourcePoint%22%2F%3E%3CmxPoint%20x%3D%22-2000%22%20y%3D%222240%22%20as%3D%22targetPoint%22%2F%3E%3C%2FmxGeometry%3E%3C%2FmxCell%3E%3CmxCell%20id%3D%223%22%20value%3D%22User%22%20style%3D%22shape%3DumlActor%3BverticalLabelPosition%3Dbottom%3BverticalAlign%3Dtop%3Bhtml%3D1%3BoutlineConnect%3D0%3B%22%20vertex%3D%221%22%20parent%3D%221%22%3E%3CmxGeometry%20x%3D%22-2290%22%20y%3D%222200%22%20width%3D%2235%22%20height%3D%2270%22%20as%3D%22geometry%22%2F%3E%3C%2FmxCell%3E%3CmxCell%20id%3D%224%22%20value%3D%22%3AFrontend%22%20style%3D%22rounded%3D0%3BwhiteSpace%3Dwrap%3Bhtml%3D1%3B%22%20vertex%3D%221%22%20parent%3D%221%22%3E%3CmxGeometry%20x%3D%22-2000%22%20y%3D%222215%22%20width%3D%22130.91%22%20height%3D%2240%22%20as%3D%22geometry%22%2F%3E%3C%2FmxCell%3E%3CmxCell%20id%3D%225%22%20value%3D%22%22%20style%3D%22endArrow%3Dclassic%3Bhtml%3D1%3Brounded%3D0%3B%22%20edge%3D%221%22%20parent%3D%221%22%3E%3CmxGeometry%20width%3D%2250%22%20height%3D%2250%22%20relative%3D%221%22%20as%3D%22geometry%22%3E%3CmxPoint%20x%3D%22-2240%22%20y%3D%222225%22%20as%3D%22sourcePoint%22%2F%3E%3CmxPoint%20x%3D%22-2019.9999999999998%22%20y%3D%222225%22%20as%3D%22targetPoint%22%2F%3E%3C%2FmxGeometry%3E%3C%2FmxCell%3E%3CmxCell%20id%3D%226%22%20value%3D%22%22%20style%3D%22endArrow%3Dclassic%3Bhtml%3D1%3Brounded%3D0%3Bdashed%3D1%3B%22%20edge%3D%221%22%20parent%3D%221%22%3E%3CmxGeometry%20width%3D%2250%22%20height%3D%2250%22%20relative%3D%221%22%20as%3D%22geometry%22%3E%3CmxPoint%20x%3D%22-2029.9999999999998%22%20y%3D%222255%22%20as%3D%22sourcePoint%22%2F%3E%3CmxPoint%20x%3D%22-2240%22%20y%3D%222255%22%20as%3D%22targetPoint%22%2F%3E%3C%2FmxGeometry%3E%3C%2FmxCell%3E%3CmxCell%20id%3D%227%22%20value%3D%22%26amp%3Bnbsp%3B%3ARouter%22%20style%3D%22rounded%3D0%3BwhiteSpace%3Dwrap%3Bhtml%3D1%3B%22%20vertex%3D%221%22%20parent%3D%221%22%3E%3CmxGeometry%20x%3D%22-1660%22%20y%3D%222215%22%20width%3D%22130.91%22%20height%3D%2240%22%20as%3D%22geometry%22%2F%3E%3C%2FmxCell%3E%3CmxCell%20id%3D%228%22%20style%3D%22edgeStyle%3DorthogonalEdgeStyle%3Brounded%3D0%3BorthogonalLoop%3D1%3BjettySize%3Dauto%3Bhtml%3D1%3BentryX%3D0%3BentryY%3D0.5%3BentryDx%3D0%3BentryDy%3D0%3BendArrow%3Dnone%3BstartFill%3D0%3B%22%20edge%3D%221%22%20target%3D%227%22%20parent%3D%221%22%3E%3CmxGeometry%20relative%3D%221%22%20as%3D%22geometry%22%3E%3CmxPoint%20x%3D%22-1869.09%22%20y%3D%222235%22%20as%3D%22sourcePoint%22%2F%3E%3CmxPoint%20x%3D%22-1664.09%22%20y%3D%222235%22%20as%3D%22targetPoint%22%2F%3E%3C%2FmxGeometry%3E%3C%2FmxCell%3E%3CmxCell%20id%3D%229%22%20value%3D%22%22%20style%3D%22endArrow%3Dclassic%3Bhtml%3D1%3Brounded%3D0%3B%22%20edge%3D%221%22%20parent%3D%221%22%3E%3CmxGeometry%20width%3D%2250%22%20height%3D%2250%22%20relative%3D%221%22%20as%3D%22geometry%22%3E%3CmxPoint%20x%3D%22-1844.09%22%20y%3D%222220%22%20as%3D%22sourcePoint%22%2F%3E%3CmxPoint%20x%3D%22-1684.09%22%20y%3D%222220%22%20as%3D%22targetPoint%22%2F%3E%3C%2FmxGeometry%3E%3C%2FmxCell%3E%3CmxCell%20id%3D%2210%22%20value%3D%22%26amp%3Bnbsp%3B%22%20style%3D%22text%3BwhiteSpace%3Dwrap%3Bhtml%3D1%3B%22%20vertex%3D%221%22%20parent%3D%221%22%3E%3CmxGeometry%20x%3D%22-1760%22%20y%3D%222200%22%20width%3D%2240%22%20height%3D%2240%22%20as%3D%22geometry%22%2F%3E%3C%2FmxCell%3E%3CmxCell%20id%3D%2211%22%20value%3D%22%3AClassController%26amp%3Bnbsp%3B%22%20style%3D%22rounded%3D0%3BwhiteSpace%3Dwrap%3Bhtml%3D1%3B%22%20vertex%3D%221%22%20parent%3D%221%22%3E%3CmxGeometry%20x%3D%22-1169.09%22%20y%3D%222215%22%20width%3D%22130.91%22%20height%3D%2240%22%20as%3D%22geometry%22%2F%3E%3C%2FmxCell%3E%3CmxCell%20id%3D%2212%22%20style%3D%22edgeStyle%3DorthogonalEdgeStyle%3Brounded%3D0%3BorthogonalLoop%3D1%3BjettySize%3Dauto%3Bhtml%3D1%3BentryX%3D0%3BentryY%3D0.5%3BentryDx%3D0%3BentryDy%3D0%3BendArrow%3Dnone%3BstartFill%3D0%3B%22%20edge%3D%221%22%20target%3D%2211%22%20parent%3D%221%22%3E%3CmxGeometry%20relative%3D%221%22%20as%3D%22geometry%22%3E%3CmxPoint%20x%3D%22-1529.09%22%20y%3D%222235%22%20as%3D%22sourcePoint%22%2F%3E%3CmxPoint%20x%3D%22-1324.09%22%20y%3D%222235%22%20as%3D%22targetPoint%22%2F%3E%3C%2FmxGeometry%3E%3C%2FmxCell%3E%3CmxCell%20id%3D%2213%22%20value%3D%22%22%20style%3D%22endArrow%3Dclassic%3Bhtml%3D1%3Brounded%3D0%3B%22%20edge%3D%221%22%20parent%3D%221%22%3E%3CmxGeometry%20width%3D%2250%22%20height%3D%2250%22%20relative%3D%221%22%20as%3D%22geometry%22%3E%3CmxPoint%20x%3D%22-1504.09%22%20y%3D%222220%22%20as%3D%22sourcePoint%22%2F%3E%3CmxPoint%20x%3D%22-1190%22%20y%3D%222220%22%20as%3D%22targetPoint%22%2F%3E%3C%2FmxGeometry%3E%3C%2FmxCell%3E%3CmxCell%20id%3D%2214%22%20value%3D%22%22%20style%3D%22endArrow%3Dclassic%3Bhtml%3D1%3Brounded%3D0%3Bdashed%3D1%3B%22%20edge%3D%221%22%20parent%3D%221%22%3E%3CmxGeometry%20width%3D%2250%22%20height%3D%2250%22%20relative%3D%221%22%20as%3D%22geometry%22%3E%3CmxPoint%20x%3D%22-1190%22%20y%3D%222250%22%20as%3D%22sourcePoint%22%2F%3E%3CmxPoint%20x%3D%22-1510%22%20y%3D%222250%22%20as%3D%22targetPoint%22%2F%3E%3C%2FmxGeometry%3E%3C%2FmxCell%3E%3CmxCell%20id%3D%2215%22%20value%3D%22%3AClassService%26amp%3Bnbsp%3B%22%20style%3D%22rounded%3D0%3BwhiteSpace%3Dwrap%3Bhtml%3D1%3B%22%20vertex%3D%221%22%20parent%3D%221%22%3E%3CmxGeometry%20x%3D%22-709.09%22%20y%3D%222215%22%20width%3D%22130.91%22%20height%3D%2240%22%20as%3D%22geometry%22%2F%3E%3C%2FmxCell%3E%3CmxCell%20id%3D%2216%22%20style%3D%22edgeStyle%3DorthogonalEdgeStyle%3Brounded%3D0%3BorthogonalLoop%3D1%3BjettySize%3Dauto%3Bhtml%3D1%3BentryX%3D0%3BentryY%3D0.5%3BentryDx%3D0%3BentryDy%3D0%3BendArrow%3Dnone%3BstartFill%3D0%3B%22%20edge%3D%221%22%20target%3D%2215%22%20parent%3D%221%22%3E%3CmxGeometry%20relative%3D%221%22%20as%3D%22geometry%22%3E%3CmxPoint%20x%3D%22-1038.1799999999998%22%20y%3D%222235%22%20as%3D%22sourcePoint%22%2F%3E%3CmxPoint%20x%3D%22-833.18%22%20y%3D%222235%22%20as%3D%22targetPoint%22%2F%3E%3C%2FmxGeometry%3E%3C%2FmxCell%3E%3CmxCell%20id%3D%2217%22%20value%3D%22%22%20style%3D%22endArrow%3Dclassic%3Bhtml%3D1%3Brounded%3D0%3B%22%20edge%3D%221%22%20parent%3D%221%22%3E%3CmxGeometry%20width%3D%2250%22%20height%3D%2250%22%20relative%3D%221%22%20as%3D%22geometry%22%3E%3CmxPoint%20x%3D%22-1013.18%22%20y%3D%222220%22%20as%3D%22sourcePoint%22%2F%3E%3CmxPoint%20x%3D%22-719.09%22%20y%3D%222220%22%20as%3D%22targetPoint%22%2F%3E%3C%2FmxGeometry%3E%3C%2FmxCell%3E%3CmxCell%20id%3D%2218%22%20value%3D%22%22%20style%3D%22endArrow%3Dclassic%3Bhtml%3D1%3Brounded%3D0%3Bdashed%3D1%3B%22%20edge%3D%221%22%20parent%3D%221%22%3E%3CmxGeometry%20width%3D%2250%22%20height%3D%2250%22%20relative%3D%221%22%20as%3D%22geometry%22%3E%3CmxPoint%20x%3D%22-719.09%22%20y%3D%222250%22%20as%3D%22sourcePoint%22%2F%3E%3CmxPoint%20x%3D%22-1019.09%22%20y%3D%222250%22%20as%3D%22targetPoint%22%2F%3E%3C%2FmxGeometry%3E%3C%2FmxCell%3E%3CmxCell%20id%3D%2219%22%20style%3D%22edgeStyle%3DorthogonalEdgeStyle%3Brounded%3D0%3BorthogonalLoop%3D1%3BjettySize%3Dauto%3Bhtml%3D1%3BendArrow%3Dnone%3BstartFill%3D0%3B%22%20edge%3D%221%22%20source%3D%2220%22%20parent%3D%221%22%3E%3CmxGeometry%20relative%3D%221%22%20as%3D%22geometry%22%3E%3CmxPoint%20x%3D%22170.91%22%20y%3D%222235%22%20as%3D%22targetPoint%22%2F%3E%3C%2FmxGeometry%3E%3C%2FmxCell%3E%3CmxCell%20id%3D%2220%22%20value%3D%22%3AClassRepository%22%20style%3D%22rounded%3D0%3BwhiteSpace%3Dwrap%3Bhtml%3D1%3B%22%20vertex%3D%221%22%20parent%3D%221%22%3E%3CmxGeometry%20x%3D%22-369.0899999999999%22%20y%3D%222215%22%20width%3D%22130.91%22%20height%3D%2240%22%20as%3D%22geometry%22%2F%3E%3C%2FmxCell%3E%3CmxCell%20id%3D%2221%22%20style%3D%22edgeStyle%3DorthogonalEdgeStyle%3Brounded%3D0%3BorthogonalLoop%3D1%3BjettySize%3Dauto%3Bhtml%3D1%3BentryX%3D0%3BentryY%3D0.5%3BentryDx%3D0%3BentryDy%3D0%3BendArrow%3Dnone%3BstartFill%3D0%3B%22%20edge%3D%221%22%20target%3D%2220%22%20parent%3D%221%22%3E%3CmxGeometry%20relative%3D%221%22%20as%3D%22geometry%22%3E%3CmxPoint%20x%3D%22-578.1799999999998%22%20y%3D%222235%22%20as%3D%22sourcePoint%22%2F%3E%3CmxPoint%20x%3D%22-373.17999999999984%22%20y%3D%222235%22%20as%3D%22targetPoint%22%2F%3E%3C%2FmxGeometry%3E%3C%2FmxCell%3E%3CmxCell%20id%3D%2222%22%20value%3D%22%22%20style%3D%22endArrow%3Dclassic%3Bhtml%3D1%3Brounded%3D0%3B%22%20edge%3D%221%22%20parent%3D%221%22%3E%3CmxGeometry%20width%3D%2250%22%20height%3D%2250%22%20relative%3D%221%22%20as%3D%22geometry%22%3E%3CmxPoint%20x%3D%22-553.18%22%20y%3D%222220%22%20as%3D%22sourcePoint%22%2F%3E%3CmxPoint%20x%3D%22-393.1799999999997%22%20y%3D%222220%22%20as%3D%22targetPoint%22%2F%3E%3C%2FmxGeometry%3E%3C%2FmxCell%3E%3CmxCell%20id%3D%2223%22%20value%3D%22%22%20style%3D%22endArrow%3Dclassic%3Bhtml%3D1%3Brounded%3D0%3Bdashed%3D1%3B%22%20edge%3D%221%22%20parent%3D%221%22%3E%3CmxGeometry%20width%3D%2250%22%20height%3D%2250%22%20relative%3D%221%22%20as%3D%22geometry%22%3E%3CmxPoint%20x%3D%22-389.09000000000003%22%20y%3D%222250%22%20as%3D%22sourcePoint%22%2F%3E%3CmxPoint%20x%3D%22-549.09%22%20y%3D%222250%22%20as%3D%22targetPoint%22%2F%3E%3C%2FmxGeometry%3E%3C%2FmxCell%3E%3CmxCell%20id%3D%2224%22%20value%3D%22GET%20%2Fapi%2Fclasses%3Fadmin%3Dtrue%26lt%3Bdiv%26gt%3BPOST%20%2Fapi%2Fclasses%2Fedit%20(classID%2C%20updatedData)%26lt%3B%2Fdiv%26gt%3B%22%20style%3D%22text%3Bhtml%3D1%3Balign%3Dcenter%3BverticalAlign%3Dmiddle%3Bresizable%3D0%3Bpoints%3D%5B%5D%3Bautosize%3D1%3BstrokeColor%3Dnone%3BfillColor%3Dnone%3B%22%20vertex%3D%221%22%20parent%3D%221%22%3E%3CmxGeometry%20x%3D%22-1905%22%20y%3D%222175%22%20width%3D%22270%22%20height%3D%2240%22%20as%3D%22geometry%22%2F%3E%3C%2FmxCell%3E%3CmxCell%20id%3D%2225%22%20value%3D%22%26amp%3Bnbsp%3B%3ADatabase%22%20style%3D%22rounded%3D0%3BwhiteSpace%3Dwrap%3Bhtml%3D1%3B%22%20vertex%3D%221%22%20parent%3D%221%22%3E%3CmxGeometry%20x%3D%22130.00000000000014%22%20y%3D%222215%22%20width%3D%22130.91%22%20height%3D%2240%22%20as%3D%22geometry%22%2F%3E%3C%2FmxCell%3E%3CmxCell%20id%3D%2226%22%20value%3D%22Edit%20Class%22%20style%3D%22text%3Bhtml%3D1%3Balign%3Dcenter%3BverticalAlign%3Dmiddle%3BwhiteSpace%3Dwrap%3Brounded%3D0%3BfontSize%3D20%3B%22%20vertex%3D%221%22%20parent%3D%221%22%3E%3CmxGeometry%20x%3D%22-1291.59%22%20y%3D%222050%22%20width%3D%22345%22%20height%3D%2230%22%20as%3D%22geometry%22%2F%3E%3C%2FmxCell%3E%3CmxCell%20id%3D%2227%22%20value%3D%22selectClass(classID)%26lt%3Bbr%26gt%3BsubmitEditForm(updated%20Data%2C%20classID)%22%20style%3D%22text%3Bhtml%3D1%3Balign%3Dcenter%3BverticalAlign%3Dmiddle%3Bresizable%3D0%3Bpoints%3D%5B%5D%3Bautosize%3D1%3BstrokeColor%3Dnone%3BfillColor%3Dnone%3B%22%20vertex%3D%221%22%20parent%3D%221%22%3E%3CmxGeometry%20x%3D%22-2240%22%20y%3D%222160%22%20width%3D%22230%22%20height%3D%2240%22%20as%3D%22geometry%22%2F%3E%3C%2FmxCell%3E%3CmxCell%20id%3D%2228%22%20value%3D%22%22%20style%3D%22endArrow%3Dclassic%3Bhtml%3D1%3Brounded%3D0%3Bdashed%3D1%3B%22%20edge%3D%221%22%20parent%3D%221%22%3E%3CmxGeometry%20width%3D%2250%22%20height%3D%2250%22%20relative%3D%221%22%20as%3D%22geometry%22%3E%3CmxPoint%20x%3D%22-1684.09%22%20y%3D%222250%22%20as%3D%22sourcePoint%22%2F%3E%3CmxPoint%20x%3D%22-1844.09%22%20y%3D%222250%22%20as%3D%22targetPoint%22%2F%3E%3C%2FmxGeometry%3E%3C%2FmxCell%3E%3CmxCell%20id%3D%2229%22%20value%3D%22%22%20style%3D%22endArrow%3Dclassic%3Bhtml%3D1%3Brounded%3D0%3B%22%20edge%3D%221%22%20parent%3D%221%22%3E%3CmxGeometry%20width%3D%2250%22%20height%3D%2250%22%20relative%3D%221%22%20as%3D%22geometry%22%3E%3CmxPoint%20x%3D%22-219.08999999999995%22%20y%3D%222219.38%22%20as%3D%22sourcePoint%22%2F%3E%3CmxPoint%20x%3D%22150.91000000000003%22%20y%3D%222220%22%20as%3D%22targetPoint%22%2F%3E%3C%2FmxGeometry%3E%3C%2FmxCell%3E%3CmxCell%20id%3D%2230%22%20value%3D%22%22%20style%3D%22endArrow%3Dclassic%3Bhtml%3D1%3Brounded%3D0%3Bdashed%3D1%3B%22%20edge%3D%221%22%20parent%3D%221%22%3E%3CmxGeometry%20width%3D%2250%22%20height%3D%2250%22%20relative%3D%221%22%20as%3D%22geometry%22%3E%3CmxPoint%20x%3D%22140.91000000000003%22%20y%3D%222250%22%20as%3D%22sourcePoint%22%2F%3E%3CmxPoint%20x%3D%22-219.09%22%20y%3D%222250%22%20as%3D%22targetPoint%22%2F%3E%3C%2FmxGeometry%3E%3C%2FmxCell%3E%3CmxCell%20id%3D%2231%22%20value%3D%22%26amp%3Bnbsp%3B%22%20style%3D%22text%3Bhtml%3D1%3Balign%3Dcenter%3BverticalAlign%3Dmiddle%3Bresizable%3D0%3Bpoints%3D%5B%5D%3Bautosize%3D1%3BstrokeColor%3Dnone%3BfillColor%3Dnone%3B%22%20vertex%3D%221%22%20parent%3D%221%22%3E%3CmxGeometry%20x%3D%22-1430%22%20y%3D%222265%22%20width%3D%2230%22%20height%3D%2230%22%20as%3D%22geometry%22%2F%3E%3C%2FmxCell%3E%3CmxCell%20id%3D%2232%22%20value%3D%22successResponse(200%2C%20classList)%26lt%3Bdiv%26gt%3BerrorResponse(400%2C%20%26quot%3BData%20incomplete%2Fincorrect%26quot%3B)%26lt%3B%2Fdiv%26gt%3B%26lt%3Bdiv%26gt%3BerrorResponse(500%2C%20%26quot%3BEdit%20failed%26quot%3B)%26lt%3B%2Fdiv%26gt%3B%26lt%3Bdiv%26gt%3BsuccessResponse(200%2C%20%26quot%3BEdit%20class%20successful%26quot%3B%2C%20updatedClass)%26lt%3B%2Fdiv%26gt%3B%22%20style%3D%22text%3Bhtml%3D1%3Balign%3Dcenter%3BverticalAlign%3Dmiddle%3Bresizable%3D0%3Bpoints%3D%5B%5D%3Bautosize%3D1%3BstrokeColor%3Dnone%3BfillColor%3Dnone%3B%22%20vertex%3D%221%22%20parent%3D%221%22%3E%3CmxGeometry%20x%3D%22-1945%22%20y%3D%222250%22%20width%3D%22350%22%20height%3D%2270%22%20as%3D%22geometry%22%2F%3E%3C%2FmxCell%3E%3CmxCell%20id%3D%2233%22%20value%3D%22displayClassList(classList)%26lt%3Bdiv%26gt%3BdisplayMessage(%26quot%3BEdit%20class%20successful%26quot%3B)%26lt%3B%2Fdiv%26gt%3B%22%20style%3D%22text%3Bhtml%3D1%3Balign%3Dcenter%3BverticalAlign%3Dmiddle%3Bresizable%3D0%3Bpoints%3D%5B%5D%3Bautosize%3D1%3BstrokeColor%3Dnone%3BfillColor%3Dnone%3B%22%20vertex%3D%221%22%20parent%3D%221%22%3E%3CmxGeometry%20x%3D%22-2245%22%20y%3D%222265%22%20width%3D%22240%22%20height%3D%2240%22%20as%3D%22geometry%22%2F%3E%3C%2FmxCell%3E%3CmxCell%20id%3D%2234%22%20style%3D%22edgeStyle%3DorthogonalEdgeStyle%3Brounded%3D0%3BorthogonalLoop%3D1%3BjettySize%3Dauto%3Bhtml%3D1%3BentryX%3D0.5%3BentryY%3D1%3BentryDx%3D0%3BentryDy%3D0%3BendArrow%3Dnone%3BstartFill%3D0%3B%22%20edge%3D%221%22%20source%3D%2235%22%20parent%3D%221%22%3E%3CmxGeometry%20relative%3D%221%22%20as%3D%22geometry%22%3E%3CmxPoint%20x%3D%22-1595.91%22%20y%3D%222255%22%20as%3D%22targetPoint%22%2F%3E%3C%2FmxGeometry%3E%3C%2FmxCell%3E%3CmxCell%20id%3D%2235%22%20value%3D%22%26amp%3Bnbsp%3B%3AMiddleware%22%20style%3D%22rounded%3D0%3BwhiteSpace%3Dwrap%3Bhtml%3D1%3B%22%20vertex%3D%221%22%20parent%3D%221%22%3E%3CmxGeometry%20x%3D%22-1660.91%22%20y%3D%222490%22%20width%3D%22130.91%22%20height%3D%2240%22%20as%3D%22geometry%22%2F%3E%3C%2FmxCell%3E%3CmxCell%20id%3D%2236%22%20value%3D%22%22%20style%3D%22endArrow%3Dclassic%3Bhtml%3D1%3Brounded%3D0%3B%22%20edge%3D%221%22%20parent%3D%221%22%3E%3CmxGeometry%20width%3D%2250%22%20height%3D%2250%22%20relative%3D%221%22%20as%3D%22geometry%22%3E%3CmxPoint%20x%3D%22-1611%22%20y%3D%222280%22%20as%3D%22sourcePoint%22%2F%3E%3CmxPoint%20x%3D%22-1610.91%22%20y%3D%222480%22%20as%3D%22targetPoint%22%2F%3E%3C%2FmxGeometry%3E%3C%2FmxCell%3E%3CmxCell%20id%3D%2237%22%20value%3D%22%22%20style%3D%22endArrow%3Dclassic%3Bhtml%3D1%3Brounded%3D0%3Bdashed%3D1%3B%22%20edge%3D%221%22%20parent%3D%221%22%3E%3CmxGeometry%20width%3D%2250%22%20height%3D%2250%22%20relative%3D%221%22%20as%3D%22geometry%22%3E%3CmxPoint%20x%3D%22-1580.91%22%20y%3D%222480%22%20as%3D%22sourcePoint%22%2F%3E%3CmxPoint%20x%3D%22-1580.91%22%20y%3D%222280%22%20as%3D%22targetPoint%22%2F%3E%3C%2FmxGeometry%3E%3C%2FmxCell%3E%3CmxCell%20id%3D%2238%22%20value%3D%22validateSession()%26lt%3Bdiv%26gt%3BvalidateRequest()%26lt%3B%2Fdiv%26gt%3B%22%20style%3D%22text%3Bhtml%3D1%3Balign%3Dcenter%3BverticalAlign%3Dmiddle%3Bresizable%3D0%3Bpoints%3D%5B%5D%3Bautosize%3D1%3BstrokeColor%3Dnone%3BfillColor%3Dnone%3B%22%20vertex%3D%221%22%20parent%3D%221%22%3E%3CmxGeometry%20x%3D%22-1735%22%20y%3D%222390%22%20width%3D%22120%22%20height%3D%2240%22%20as%3D%22geometry%22%2F%3E%3C%2FmxCell%3E%3CmxCell%20id%3D%2239%22%20value%3D%22%22%20style%3D%22endArrow%3Dclassic%3Bhtml%3D1%3Brounded%3D0%3BexitX%3D0.25%3BexitY%3D0%3BexitDx%3D0%3BexitDy%3D0%3BentryX%3D0.75%3BentryY%3D0%3BentryDx%3D0%3BentryDy%3D0%3B%22%20edge%3D%221%22%20source%3D%2211%22%20target%3D%2211%22%20parent%3D%221%22%3E%3CmxGeometry%20width%3D%2250%22%20height%3D%2250%22%20relative%3D%221%22%20as%3D%22geometry%22%3E%3CmxPoint%20x%3D%22-1169.09%22%20y%3D%222190%22%20as%3D%22sourcePoint%22%2F%3E%3CmxPoint%20x%3D%22-1039.09%22%20y%3D%222170%22%20as%3D%22targetPoint%22%2F%3E%3CArray%20as%3D%22points%22%3E%3CmxPoint%20x%3D%22-1135.35%22%20y%3D%222180%22%2F%3E%3CmxPoint%20x%3D%22-1135.0900000000001%22%20y%3D%222170%22%2F%3E%3CmxPoint%20x%3D%22-1069.09%22%20y%3D%222170%22%2F%3E%3C%2FArray%3E%3C%2FmxGeometry%3E%3C%2FmxCell%3E%3CmxCell%20id%3D%2240%22%20value%3D%22validateUpdatedData%26amp%3Bnbsp%3B%22%20style%3D%22text%3Bhtml%3D1%3Balign%3Dcenter%3BverticalAlign%3Dmiddle%3Bresizable%3D0%3Bpoints%3D%5B%5D%3Bautosize%3D1%3BstrokeColor%3Dnone%3BfillColor%3Dnone%3B%22%20vertex%3D%221%22%20parent%3D%221%22%3E%3CmxGeometry%20x%3D%22-1173.63%22%20y%3D%222125%22%20width%3D%22140%22%20height%3D%2230%22%20as%3D%22geometry%22%2F%3E%3C%2FmxCell%3E%3CmxCell%20id%3D%2241%22%20value%3D%22successResponse(200%2C%20classList)%26lt%3Bdiv%26gt%3B%5BinvalidData%20(7.1a)%5D%20returnError(%26quot%3BData%20incomplete%2Fincorrect%26quot%3B)%26lt%3B%2Fdiv%26gt%3B%26lt%3Bdiv%26gt%3BerrorResponse(500%2C%20%26quot%3BEdit%20failed%26quot%3B)%26lt%3B%2Fdiv%26gt%3B%26lt%3Bdiv%26gt%3BsuccessResponse(200%2C%20%26quot%3BEdit%20class%20successful%26quot%3B%2C%20updatedClass)%26lt%3B%2Fdiv%26gt%3B%22%20style%3D%22text%3Bhtml%3D1%3Balign%3Dcenter%3BverticalAlign%3Dmiddle%3Bresizable%3D0%3Bpoints%3D%5B%5D%3Bautosize%3D1%3BstrokeColor%3Dnone%3BfillColor%3Dnone%3B%22%20vertex%3D%221%22%20parent%3D%221%22%3E%3CmxGeometry%20x%3D%22-1530%22%20y%3D%222245%22%20width%3D%22350%22%20height%3D%2270%22%20as%3D%22geometry%22%2F%3E%3C%2FmxCell%3E%3CmxCell%20id%3D%2242%22%20style%3D%22edgeStyle%3DorthogonalEdgeStyle%3Brounded%3D0%3BorthogonalLoop%3D1%3BjettySize%3Dauto%3Bhtml%3D1%3BendArrow%3Dnone%3BstartFill%3D0%3BexitX%3D1%3BexitY%3D0.5%3BexitDx%3D0%3BexitDy%3D0%3B%22%20edge%3D%221%22%20source%3D%2235%22%20parent%3D%221%22%3E%3CmxGeometry%20relative%3D%221%22%20as%3D%22geometry%22%3E%3CmxPoint%20x%3D%22-1100%22%20y%3D%222256%22%20as%3D%22targetPoint%22%2F%3E%3CmxPoint%20x%3D%22-1424.79%22%20y%3D%222545%22%20as%3D%22sourcePoint%22%2F%3E%3CArray%20as%3D%22points%22%3E%3CmxPoint%20x%3D%22-1490%22%20y%3D%222510%22%2F%3E%3CmxPoint%20x%3D%22-1490%22%20y%3D%222420%22%2F%3E%3CmxPoint%20x%3D%22-1100%22%20y%3D%222420%22%2F%3E%3CmxPoint%20x%3D%22-1100%22%20y%3D%222256%22%2F%3E%3C%2FArray%3E%3C%2FmxGeometry%3E%3C%2FmxCell%3E%3CmxCell%20id%3D%2243%22%20value%3D%22getAdminClasses(userID)%26lt%3Bdiv%26gt%3BeditClass(classID%2C%20updated%20Data)%26lt%3B%2Fdiv%26gt%3B%22%20style%3D%22text%3Bhtml%3D1%3Balign%3Dcenter%3BverticalAlign%3Dmiddle%3Bresizable%3D0%3Bpoints%3D%5B%5D%3Bautosize%3D1%3BstrokeColor%3Dnone%3BfillColor%3Dnone%3B%22%20vertex%3D%221%22%20parent%3D%221%22%3E%3CmxGeometry%20x%3D%22-1395%22%20y%3D%222360%22%20width%3D%22200%22%20height%3D%2240%22%20as%3D%22geometry%22%2F%3E%3C%2FmxCell%3E%3CmxCell%20id%3D%2244%22%20value%3D%22%26amp%3Bnbsp%3B%22%20style%3D%22text%3Bhtml%3D1%3Balign%3Dcenter%3BverticalAlign%3Dmiddle%3Bresizable%3D0%3Bpoints%3D%5B%5D%3Bautosize%3D1%3BstrokeColor%3Dnone%3BfillColor%3Dnone%3B%22%20vertex%3D%221%22%20parent%3D%221%22%3E%3CmxGeometry%20x%3D%22-883.1800000000001%22%20y%3D%222180%22%20width%3D%2230%22%20height%3D%2230%22%20as%3D%22geometry%22%2F%3E%3C%2FmxCell%3E%3CmxCell%20id%3D%2245%22%20value%3D%22selectClassesByAdmin(userID)%26lt%3Bdiv%26gt%3BupdateClass(classID%2C%20updatedData)%26lt%3B%2Fdiv%26gt%3B%22%20style%3D%22text%3Bhtml%3D1%3Balign%3Dcenter%3BverticalAlign%3Dmiddle%3Bresizable%3D0%3Bpoints%3D%5B%5D%3Bautosize%3D1%3BstrokeColor%3Dnone%3BfillColor%3Dnone%3B%22%20vertex%3D%221%22%20parent%3D%221%22%3E%3CmxGeometry%20x%3D%22-573.1800000000001%22%20y%3D%222180%22%20width%3D%22210%22%20height%3D%2240%22%20as%3D%22geometry%22%2F%3E%3C%2FmxCell%3E%3CmxCell%20id%3D%2246%22%20value%3D%22SELECT%20id%2C%20name%2C%20description%2C%20privacy%20FROM%20classes%20WHERE%20owner_id%3D%3F%26lt%3Bdiv%26gt%3BUPDATE%20classes%20SET%20name%3D%3F%2C%20description%3D%3F%2C%20privacy%3D%3F%20WHERE%20id%3D%3F%26lt%3B%2Fdiv%26gt%3B%22%20style%3D%22text%3Bhtml%3D1%3Balign%3Dcenter%3BverticalAlign%3Dmiddle%3Bresizable%3D0%3Bpoints%3D%5B%5D%3Bautosize%3D1%3BstrokeColor%3Dnone%3BfillColor%3Dnone%3B%22%20vertex%3D%221%22%20parent%3D%221%22%3E%3CmxGeometry%20x%3D%22-224.09%22%20y%3D%222180%22%20width%3D%22420%22%20height%3D%2240%22%20as%3D%22geometry%22%2F%3E%3C%2FmxCell%3E%3CmxCell%20id%3D%2247%22%20value%3D%22classList%26lt%3Bdiv%26gt%3BaffectedRows%26lt%3B%2Fdiv%26gt%3B%22%20style%3D%22text%3Bhtml%3D1%3Balign%3Dcenter%3BverticalAlign%3Dmiddle%3Bresizable%3D0%3Bpoints%3D%5B%5D%3Bautosize%3D1%3BstrokeColor%3Dnone%3BfillColor%3Dnone%3B%22%20vertex%3D%221%22%20parent%3D%221%22%3E%3CmxGeometry%20x%3D%22-74.09%22%20y%3D%222255%22%20width%3D%22100%22%20height%3D%2240%22%20as%3D%22geometry%22%2F%3E%3C%2FmxCell%3E%3CmxCell%20id%3D%2248%22%20value%3D%22classList%26lt%3Bbr%26gt%3B%5BupdateFailure%20(5.1%20a)%5D%20returnError(%26quot%3BEdit%20failed%26quot%3B)%26lt%3Bdiv%26gt%3B%5BupdateSuccess%20(5.1)%5D%20returnClassRecord(updateClass)%26lt%3B%2Fdiv%26gt%3B%22%20style%3D%22text%3Bhtml%3D1%3Balign%3Dcenter%3BverticalAlign%3Dmiddle%3Bresizable%3D0%3Bpoints%3D%5B%5D%3Bautosize%3D1%3BstrokeColor%3Dnone%3BfillColor%3Dnone%3B%22%20vertex%3D%221%22%20parent%3D%221%22%3E%3CmxGeometry%20x%3D%22-629.09%22%20y%3D%222250%22%20width%3D%22320%22%20height%3D%2260%22%20as%3D%22geometry%22%2F%3E%3C%2FmxCell%3E%3CmxCell%20id%3D%2249%22%20value%3D%22classList%26amp%3Bnbsp%3B%26lt%3Bdiv%26gt%3BreturnError(%26quot%3BEdit%20failed%26quot%3B)%26lt%3B%2Fdiv%26gt%3B%26lt%3Bdiv%26gt%3B%26amp%3Bnbsp%3BreturnClassRecord(updateClass)%26lt%3B%2Fdiv%26gt%3B%22%20style%3D%22text%3Bhtml%3D1%3Balign%3Dcenter%3BverticalAlign%3Dmiddle%3Bresizable%3D0%3Bpoints%3D%5B%5D%3Bautosize%3D1%3BstrokeColor%3Dnone%3BfillColor%3Dnone%3B%22%20vertex%3D%221%22%20parent%3D%221%22%3E%3CmxGeometry%20x%3D%22-968.1800000000001%22%20y%3D%222250%22%20width%3D%22200%22%20height%3D%2260%22%20as%3D%22geometry%22%2F%3E%3C%2FmxCell%3E%3CmxCell%20id%3D%2250%22%20value%3D%22getAdminClasses(userID)%26lt%3Bdiv%26gt%3B%5BvalidData(7.1)%5D%20editClass(classID%2C%20updatedData)%26lt%3B%2Fdiv%26gt%3B%22%20style%3D%22text%3Bhtml%3D1%3Balign%3Dcenter%3BverticalAlign%3Dmiddle%3Bresizable%3D0%3Bpoints%3D%5B%5D%3Bautosize%3D1%3BstrokeColor%3Dnone%3BfillColor%3Dnone%3B%22%20vertex%3D%221%22%20parent%3D%221%22%3E%3CmxGeometry%20x%3D%22-1008.1800000000001%22%20y%3D%222175%22%20width%3D%22280%22%20height%3D%2240%22%20as%3D%22geometry%22%2F%3E%3C%2FmxCell%3E%3CmxCell%20id%3D%2251%22%20value%3D%22%22%20style%3D%22endArrow%3Dclassic%3Bhtml%3D1%3Brounded%3D0%3B%22%20edge%3D%221%22%20parent%3D%221%22%3E%3CmxGeometry%20width%3D%2250%22%20height%3D%2250%22%20relative%3D%221%22%20as%3D%22geometry%22%3E%3CmxPoint%20x%3D%22-1519.09%22%20y%3D%222496%22%20as%3D%22sourcePoint%22%2F%3E%3CmxPoint%20x%3D%22-1120%22%20y%3D%222265%22%20as%3D%22targetPoint%22%2F%3E%3CArray%20as%3D%22points%22%3E%3CmxPoint%20x%3D%22-1499.09%22%20y%3D%222496%22%2F%3E%3CmxPoint%20x%3D%22-1499.09%22%20y%3D%222406%22%2F%3E%3CmxPoint%20x%3D%22-1120%22%20y%3D%222410%22%2F%3E%3CmxPoint%20x%3D%22-1120%22%20y%3D%222330%22%2F%3E%3C%2FArray%3E%3C%2FmxGeometry%3E%3C%2FmxCell%3E%3CmxCell%20id%3D%2252%22%20value%3D%22%22%20style%3D%22endArrow%3Dclassic%3Bhtml%3D1%3Brounded%3D0%3BexitX%3D0.25%3BexitY%3D0%3BexitDx%3D0%3BexitDy%3D0%3BentryX%3D0.75%3BentryY%3D0%3BentryDx%3D0%3BentryDy%3D0%3B%22%20edge%3D%221%22%20parent%3D%221%22%3E%3CmxGeometry%20width%3D%2250%22%20height%3D%2250%22%20relative%3D%221%22%20as%3D%22geometry%22%3E%3CmxPoint%20x%3D%22-677.0899999999999%22%20y%3D%222215%22%20as%3D%22sourcePoint%22%2F%3E%3CmxPoint%20x%3D%22-612.0899999999999%22%20y%3D%222215%22%20as%3D%22targetPoint%22%2F%3E%3CArray%20as%3D%22points%22%3E%3CmxPoint%20x%3D%22-676.44%22%20y%3D%222180%22%2F%3E%3CmxPoint%20x%3D%22-676.1800000000001%22%20y%3D%222170%22%2F%3E%3CmxPoint%20x%3D%22-610.1800000000001%22%20y%3D%222170%22%2F%3E%3C%2FArray%3E%3C%2FmxGeometry%3E%3C%2FmxCell%3E%3CmxCell%20id%3D%2253%22%20value%3D%2222.%20verifyCurrentPassword(userId%2C%20currentPassword)%22%20style%3D%22text%3Bhtml%3D1%3Balign%3Dcenter%3BverticalAlign%3Dmiddle%3Bresizable%3D0%3Bpoints%3D%5B%5D%3Bautosize%3D1%3BstrokeColor%3Dnone%3BfillColor%3Dnone%3B%22%20vertex%3D%221%22%20parent%3D%221%22%3E%3CmxGeometry%20x%3D%22-788.1800000000001%22%20y%3D%222130%22%20width%3D%22300%22%20height%3D%2230%22%20as%3D%22geometry%22%2F%3E%3C%2FmxCell%3E%3CmxCell%20id%3D%2254%22%20value%3D%22%22%20style%3D%22endArrow%3Dclassic%3Bhtml%3D1%3Brounded%3D0%3BexitX%3D0.25%3BexitY%3D0%3BexitDx%3D0%3BexitDy%3D0%3BentryX%3D0.75%3BentryY%3D0%3BentryDx%3D0%3BentryDy%3D0%3B%22%20edge%3D%221%22%20parent%3D%221%22%3E%3CmxGeometry%20width%3D%2250%22%20height%3D%2250%22%20relative%3D%221%22%20as%3D%22geometry%22%3E%3CmxPoint%20x%3D%22-1966.9099999999999%22%20y%3D%222215%22%20as%3D%22sourcePoint%22%2F%3E%3CmxPoint%20x%3D%22-1901.9099999999999%22%20y%3D%222215%22%20as%3D%22targetPoint%22%2F%3E%3CArray%20as%3D%22points%22%3E%3CmxPoint%20x%3D%22-1966.2599999999998%22%20y%3D%222180%22%2F%3E%3CmxPoint%20x%3D%22-1966%22%20y%3D%222170%22%2F%3E%3CmxPoint%20x%3D%22-1900%22%20y%3D%222170%22%2F%3E%3C%2FArray%3E%3C%2FmxGeometry%3E%3C%2FmxCell%3E%3CmxCell%20id%3D%2255%22%20value%3D%22displayEditForm(classDetail)%22%20style%3D%22text%3Bhtml%3D1%3Balign%3Dcenter%3BverticalAlign%3Dmiddle%3Bresizable%3D0%3Bpoints%3D%5B%5D%3Bautosize%3D1%3BstrokeColor%3Dnone%3BfillColor%3Dnone%3B%22%20vertex%3D%221%22%20parent%3D%221%22%3E%3CmxGeometry%20x%3D%22-2024.54%22%20y%3D%222125%22%20width%3D%22180%22%20height%3D%2230%22%20as%3D%22geometry%22%2F%3E%3C%2FmxCell%3E%3C%2Froot%3E%3C%2FmxGraphModel%3E&lt;/span&gt;validateSession()&lt;div&gt;18. validateRequest()&lt;/div&gt;&lt;div&gt;36. validateRequest()&lt;/div&gt;" style="text;html=1;align=center;verticalAlign=middle;resizable=0;points=[];autosize=1;strokeColor=none;fillColor=none;" vertex="1" parent="1"><mxGeometry x="3740" y="4710" width="140" height="60" as="geometry"/></mxCell><mxCell id="37" value="" style="endArrow=classic;html=1;rounded=0;exitX=0.25;exitY=0;exitDx=0;exitDy=0;entryX=0.75;entryY=0;entryDx=0;entryDy=0;" edge="1" parent="1" source="10" target="10"><mxGeometry width="50" height="50" relative="1" as="geometry"><mxPoint x="4336" y="4480" as="sourcePoint"/><mxPoint x="4466" y="4460" as="targetPoint"/><Array as="points"><mxPoint x="4369.74" y="4470"/><mxPoint x="4370" y="4460"/><mxPoint x="4436" y="4460"/></Array></mxGeometry></mxCell><mxCell id="38" value="40. validateUpdatedData(updatedData)" style="text;html=1;align=center;verticalAlign=middle;resizable=0;points=[];autosize=1;strokeColor=none;fillColor=none;" vertex="1" parent="1"><mxGeometry x="4286.46" y="4415" width="230" height="30" as="geometry"/></mxCell><mxCell id="39" value="&lt;div&gt;&lt;span style=&quot;background-color: transparent; color: light-dark(rgb(0, 0, 0), rgb(255, 255, 255));&quot;&gt;10. successResponse(200, classList) &amp;lt;&amp;lt;Step 2a.2&amp;gt;&amp;gt;&lt;/span&gt;&lt;/div&gt;&lt;div&gt;&lt;div&gt;13. errorResponse(404, &quot;ไม่พบข้อมูล class&quot;) &amp;lt;&amp;lt;Step2b.2&amp;gt;&amp;gt;&lt;/div&gt;&lt;/div&gt;" style="text;html=1;align=center;verticalAlign=middle;resizable=0;points=[];autosize=1;strokeColor=none;fillColor=none;" vertex="1" parent="1"><mxGeometry x="3995.09" y="4560" width="330" height="40" as="geometry"/></mxCell><mxCell id="40" style="edgeStyle=orthogonalEdgeStyle;rounded=0;orthogonalLoop=1;jettySize=auto;html=1;endArrow=none;startFill=0;exitX=1;exitY=0.5;exitDx=0;exitDy=0;" edge="1" parent="1" source="33"><mxGeometry relative="1" as="geometry"><mxPoint x="4405.09" y="4546" as="targetPoint"/><mxPoint x="4080.3" y="4835" as="sourcePoint"/><Array as="points"><mxPoint x="4015.09" y="4800"/><mxPoint x="4015.09" y="4710"/><mxPoint x="4405.09" y="4710"/><mxPoint x="4405.09" y="4546"/></Array></mxGeometry></mxCell><mxCell id="41" value="3. getAdminClasses(userID)" style="text;html=1;align=center;verticalAlign=middle;resizable=0;points=[];autosize=1;strokeColor=none;fillColor=none;" vertex="1" parent="1"><mxGeometry x="4111.09" y="4655" width="170" height="30" as="geometry"/></mxCell><mxCell id="42" value="&amp;nbsp;" style="text;html=1;align=center;verticalAlign=middle;resizable=0;points=[];autosize=1;strokeColor=none;fillColor=none;" vertex="1" parent="1"><mxGeometry x="4621.91" y="4470" width="30" height="30" as="geometry"/></mxCell><mxCell id="43" value="&amp;nbsp;5.&amp;nbsp; selectClassesByAdmin(userID)" style="text;html=1;align=center;verticalAlign=middle;resizable=0;points=[];autosize=1;strokeColor=none;fillColor=none;" vertex="1" parent="1"><mxGeometry x="4926.91" y="4450" width="210" height="30" as="geometry"/></mxCell><mxCell id="44" value="6. SELECT id, name, ... FROM classes WHERE owner_id=? &amp;lt;&amp;lt;Step 1&amp;gt;&amp;gt;" style="text;html=1;align=center;verticalAlign=middle;resizable=0;points=[];autosize=1;strokeColor=none;fillColor=none;" vertex="1" parent="1"><mxGeometry x="5266.91" y="4470" width="410" height="30" as="geometry"/></mxCell><mxCell id="45" value="7. classList" style="text;html=1;align=center;verticalAlign=middle;resizable=0;points=[];autosize=1;strokeColor=none;fillColor=none;" vertex="1" parent="1"><mxGeometry x="5432" y="4560" width="80" height="30" as="geometry"/></mxCell><mxCell id="46" value="&lt;div&gt;&lt;div&gt;8. [Classes found (2a.1)] classList&lt;/div&gt;&lt;/div&gt;11. [No classes found (2b.1)] emptyList" style="text;html=1;align=center;verticalAlign=middle;resizable=0;points=[];autosize=1;strokeColor=none;fillColor=none;" vertex="1" parent="1"><mxGeometry x="4916.91" y="4560" width="230" height="40" as="geometry"/></mxCell><mxCell id="47" value="&lt;div&gt;9. classList&lt;/div&gt;&lt;div&gt;12. returnError(&quot;ไม่พบข้อมูล class&quot;)&lt;/div&gt;" style="text;html=1;align=center;verticalAlign=middle;resizable=0;points=[];autosize=1;strokeColor=none;fillColor=none;" vertex="1" parent="1"><mxGeometry x="4521.54" y="4565" width="210" height="40" as="geometry"/></mxCell><mxCell id="48" value="4. getAdminClasses(userID)" style="text;html=1;align=center;verticalAlign=middle;resizable=0;points=[];autosize=1;strokeColor=none;fillColor=none;" vertex="1" parent="1"><mxGeometry x="4558.5" y="4455" width="170" height="30" as="geometry"/></mxCell><mxCell id="49" value="" style="endArrow=classic;html=1;rounded=0;" edge="1" parent="1"><mxGeometry width="50" height="50" relative="1" as="geometry"><mxPoint x="3986" y="4786" as="sourcePoint"/><mxPoint x="4385.09" y="4555" as="targetPoint"/><Array as="points"><mxPoint x="4006" y="4786"/><mxPoint x="4006" y="4696"/><mxPoint x="4385.09" y="4696"/><mxPoint x="4385.09" y="4620"/></Array></mxGeometry></mxCell><mxCell id="50" value=":CourseController" style="rounded=0;whiteSpace=wrap;html=1;" vertex="1" parent="1"><mxGeometry x="6065.09" y="4505" width="130.91" height="40" as="geometry"/></mxCell><mxCell id="51" value=":CourseService" style="rounded=0;whiteSpace=wrap;html=1;" vertex="1" parent="1"><mxGeometry x="6465.09" y="4505" width="130.91" height="40" as="geometry"/></mxCell><mxCell id="52" value=":CourseRepository" style="rounded=0;whiteSpace=wrap;html=1;" vertex="1" parent="1"><mxGeometry x="6865.09" y="4505" width="130.91" height="40" as="geometry"/></mxCell><mxCell id="53" style="edgeStyle=orthogonalEdgeStyle;rounded=0;orthogonalLoop=1;jettySize=auto;html=1;endArrow=none;startFill=0;" edge="1" parent="1"><mxGeometry relative="1" as="geometry"><mxPoint x="6465.09" y="4524.54" as="targetPoint"/><mxPoint x="6196" y="4524.95" as="sourcePoint"/></mxGeometry></mxCell><mxCell id="54" style="edgeStyle=orthogonalEdgeStyle;rounded=0;orthogonalLoop=1;jettySize=auto;html=1;endArrow=none;startFill=0;" edge="1" parent="1"><mxGeometry relative="1" as="geometry"><mxPoint x="6865.09" y="4524.549999999999" as="targetPoint"/><mxPoint x="6596" y="4524.959999999999" as="sourcePoint"/></mxGeometry></mxCell><mxCell id="55" value="&lt;div style=&quot;forced-color-adjust: none; box-shadow: none !important;&quot;&gt;19. getCourses(classID)&lt;/div&gt;&lt;div style=&quot;forced-color-adjust: none; box-shadow: none !important;&quot;&gt;37.deleteCourse(courseID)&lt;/div&gt;" style="text;whiteSpace=wrap;html=1;" vertex="1" parent="1"><mxGeometry x="5043.82" y="4735" width="139.09" height="30" as="geometry"/></mxCell><mxCell id="56" style="edgeStyle=orthogonalEdgeStyle;rounded=0;orthogonalLoop=1;jettySize=auto;html=1;endArrow=none;startFill=0;entryX=0.5;entryY=1;entryDx=0;entryDy=0;" edge="1" parent="1" target="50"><mxGeometry relative="1" as="geometry"><mxPoint x="3975.09" y="4800" as="sourcePoint"/><mxPoint x="5775.09" y="4740" as="targetPoint"/><Array as="points"><mxPoint x="6131.09" y="4799"/></Array></mxGeometry></mxCell><mxCell id="57" value="" style="endArrow=classic;html=1;rounded=0;" edge="1" parent="1"><mxGeometry width="50" height="50" relative="1" as="geometry"><mxPoint x="3985.09" y="4790" as="sourcePoint"/><mxPoint x="6115.09" y="4560" as="targetPoint"/><Array as="points"><mxPoint x="4205.09" y="4790"/><mxPoint x="4585.09" y="4790"/><mxPoint x="6105.09" y="4790"/><mxPoint x="6115.09" y="4790"/></Array></mxGeometry></mxCell><mxCell id="58" value="20. getCourses(classID)&lt;div&gt;38. deleteCourseID(courseID)&lt;/div&gt;" style="text;html=1;align=center;verticalAlign=middle;resizable=0;points=[];autosize=1;strokeColor=none;fillColor=none;" vertex="1" parent="1"><mxGeometry x="6230" y="4470" width="180" height="40" as="geometry"/></mxCell><mxCell id="59" value="" style="endArrow=classic;html=1;rounded=0;" edge="1" parent="1"><mxGeometry width="50" height="50" relative="1" as="geometry"><mxPoint x="6205.09" y="4515" as="sourcePoint"/><mxPoint x="6445.09" y="4516" as="targetPoint"/></mxGeometry></mxCell><mxCell id="60" value="21. selectCoursesByClass(classID)&lt;div&gt;39. deleteCourseID(courseID)&lt;/div&gt;" style="text;html=1;align=center;verticalAlign=middle;resizable=0;points=[];autosize=1;strokeColor=none;fillColor=none;" vertex="1" parent="1"><mxGeometry x="6615.09" y="4470" width="210" height="40" as="geometry"/></mxCell><mxCell id="61" value="" style="endArrow=classic;html=1;rounded=0;" edge="1" parent="1"><mxGeometry width="50" height="50" relative="1" as="geometry"><mxPoint x="6605.09" y="4514" as="sourcePoint"/><mxPoint x="6845.09" y="4515" as="targetPoint"/></mxGeometry></mxCell><mxCell id="62" value="" style="endArrow=classic;html=1;rounded=0;" edge="1" parent="1"><mxGeometry width="50" height="50" relative="1" as="geometry"><mxPoint x="5296" y="4519.38" as="sourcePoint"/><mxPoint x="5666" y="4520" as="targetPoint"/></mxGeometry></mxCell><mxCell id="63" style="edgeStyle=orthogonalEdgeStyle;rounded=0;orthogonalLoop=1;jettySize=auto;html=1;endArrow=none;startFill=0;exitX=0.5;exitY=0;exitDx=0;exitDy=0;entryX=0.5;entryY=0;entryDx=0;entryDy=0;" edge="1" parent="1" source="23" target="52"><mxGeometry relative="1" as="geometry"><mxPoint x="6755.09" y="4460" as="targetPoint"/><mxPoint x="5775.09" y="4415.41" as="sourcePoint"/><Array as="points"><mxPoint x="5731.09" y="4390"/><mxPoint x="6931.09" y="4390"/></Array></mxGeometry></mxCell><mxCell id="64" value="" style="endArrow=classic;html=1;rounded=0;" edge="1" parent="1"><mxGeometry width="50" height="50" relative="1" as="geometry"><mxPoint x="6945.09" y="4500" as="sourcePoint"/><mxPoint x="5715.09" y="4500" as="targetPoint"/><Array as="points"><mxPoint x="6945.09" y="4370"/><mxPoint x="5715" y="4370"/></Array></mxGeometry></mxCell><mxCell id="65" value="22. SELECT id, title, description FROM courses WHERE class_id=? &amp;lt;&amp;lt;Step 4&amp;gt;&amp;gt;&lt;div&gt;40. [ลบข้อมูลที่เกี่ยวข้อง (Step 9)] DELETE FROM courses WHERE id=? &amp;lt;&amp;lt;Step 9.1&amp;gt;&amp;gt;&lt;/div&gt;&lt;div&gt;42.&amp;nbsp;&lt;span style=&quot;background-color: transparent; color: light-dark(rgb(0, 0, 0), rgb(255, 255, 255));&quot;&gt;DELETE FROM user_courses WHERE course_id=? &amp;lt;&amp;lt;Step 9.2&amp;gt;&amp;gt;&lt;/span&gt;&lt;/div&gt;&lt;div&gt;&lt;span style=&quot;background-color: transparent; color: light-dark(rgb(0, 0, 0), rgb(255, 255, 255));&quot;&gt;44.&amp;nbsp;&lt;/span&gt;&lt;span style=&quot;background-color: transparent; color: light-dark(rgb(0, 0, 0), rgb(255, 255, 255));&quot;&gt;DELETE FROM quizzes WHERE course_id=? &amp;lt;&amp;lt;Step 9.3&amp;gt;&amp;gt;&lt;/span&gt;&lt;/div&gt;&lt;div&gt;&lt;span style=&quot;background-color: transparent; color: light-dark(rgb(0, 0, 0), rgb(255, 255, 255));&quot;&gt;46.&amp;nbsp;&lt;/span&gt;&lt;span style=&quot;background-color: transparent; color: light-dark(rgb(0, 0, 0), rgb(255, 255, 255));&quot;&gt;DELETE FROM choice_quizzes WHERE course_id=? &amp;lt;&amp;lt;Step 9.4&amp;gt;&amp;gt;&lt;/span&gt;&lt;/div&gt;&lt;div&gt;&lt;span style=&quot;background-color: transparent; color: light-dark(rgb(0, 0, 0), rgb(255, 255, 255));&quot;&gt;48.&amp;nbsp;&lt;/span&gt;&lt;span style=&quot;background-color: transparent; color: light-dark(rgb(0, 0, 0), rgb(255, 255, 255));&quot;&gt;DELETE FROM choice_answers WHERE course_id=? &amp;lt;&amp;lt;Step 9.5&amp;gt;&amp;gt;&lt;/span&gt;&lt;/div&gt;&lt;div&gt;&lt;span style=&quot;background-color: transparent; color: light-dark(rgb(0, 0, 0), rgb(255, 255, 255));&quot;&gt;50.&amp;nbsp;&lt;/span&gt;&lt;span style=&quot;background-color: transparent; color: light-dark(rgb(0, 0, 0), rgb(255, 255, 255));&quot;&gt;DELETE FROM ordering_quizzes WHERE course_id=? &amp;lt;&amp;lt;Step 9.6&amp;gt;&amp;gt;&lt;/span&gt;&lt;/div&gt;&lt;div&gt;&lt;span style=&quot;background-color: transparent; color: light-dark(rgb(0, 0, 0), rgb(255, 255, 255));&quot;&gt;52.&amp;nbsp;&lt;/span&gt;&lt;span style=&quot;background-color: transparent; color: light-dark(rgb(0, 0, 0), rgb(255, 255, 255));&quot;&gt;DELETE FROM ordering_answers WHERE course_id=? &amp;lt;&amp;lt;Step 9.7&amp;gt;&amp;gt;&lt;/span&gt;&lt;/div&gt;&lt;div&gt;&lt;div&gt;&lt;span style=&quot;background-color: transparent; color: light-dark(rgb(0, 0, 0), rgb(255, 255, 255));&quot;&gt;54.&amp;nbsp;&lt;/span&gt;&lt;span style=&quot;background-color: transparent; color: light-dark(rgb(0, 0, 0), rgb(255, 255, 255));&quot;&gt;DELETE FROM missing_words_quizzes WHERE course_id=? &amp;lt;&amp;lt;Step 9.8&amp;gt;&amp;gt;&lt;/span&gt;&lt;/div&gt;&lt;div&gt;&lt;span style=&quot;background-color: transparent; color: light-dark(rgb(0, 0, 0), rgb(255, 255, 255));&quot;&gt;56.&amp;nbsp;&lt;/span&gt;&lt;span style=&quot;background-color: transparent; color: light-dark(rgb(0, 0, 0), rgb(255, 255, 255));&quot;&gt;DELETE FROM quiz_histories WHERE course_id=? &amp;lt;&amp;lt;Step 9.9&amp;gt;&amp;gt;&lt;/span&gt;&lt;/div&gt;&lt;/div&gt;&lt;div&gt;&lt;div&gt;&lt;span style=&quot;background-color: transparent; color: light-dark(rgb(0, 0, 0), rgb(255, 255, 255));&quot;&gt;58.&amp;nbsp;&lt;/span&gt;&lt;span style=&quot;background-color: transparent; color: light-dark(rgb(0, 0, 0), rgb(255, 255, 255));&quot;&gt;DELETE FROM choice_histories WHERE course_id=? &amp;lt;&amp;lt;Step 9.10&amp;gt;&amp;gt;&lt;/span&gt;&lt;/div&gt;&lt;div&gt;&lt;span style=&quot;background-color: transparent; color: light-dark(rgb(0, 0, 0), rgb(255, 255, 255));&quot;&gt;60.&amp;nbsp;&lt;/span&gt;&lt;span style=&quot;background-color: transparent; color: light-dark(rgb(0, 0, 0), rgb(255, 255, 255));&quot;&gt;DELETE FROM ordering_histories WHERE course_id=? &amp;lt;&amp;lt;Step 9.11&amp;gt;&amp;gt;&lt;/span&gt;&lt;/div&gt;&lt;/div&gt;&lt;div&gt;&lt;span style=&quot;background-color: transparent; color: light-dark(rgb(0, 0, 0), rgb(255, 255, 255));&quot;&gt;62.&amp;nbsp;&lt;/span&gt;&lt;span style=&quot;background-color: transparent; color: light-dark(rgb(0, 0, 0), rgb(255, 255, 255));&quot;&gt;DELETE FROM missing_words_histories WHERE course_id=? &amp;lt;&amp;lt;Step 9.12&amp;gt;&amp;gt;&lt;br&gt;&lt;/span&gt;&lt;/div&gt;" style="text;html=1;align=center;verticalAlign=middle;resizable=0;points=[];autosize=1;strokeColor=none;fillColor=none;" vertex="1" parent="1"><mxGeometry x="6251.09" y="4170" width="480" height="200" as="geometry"/></mxCell><mxCell id="66" value="" style="endArrow=classic;html=1;rounded=0;dashed=1;" edge="1" parent="1"><mxGeometry width="50" height="50" relative="1" as="geometry"><mxPoint x="5745.09" y="4490" as="sourcePoint"/><mxPoint x="6915.09" y="4490" as="targetPoint"/><Array as="points"><mxPoint x="5745.09" y="4410"/><mxPoint x="6915.09" y="4410"/></Array></mxGeometry></mxCell><mxCell id="67" value="23. courseList&lt;div&gt;41. affectedRows&lt;/div&gt;&lt;div&gt;43. affectedRows&lt;/div&gt;&lt;div&gt;45. affectedRows&lt;/div&gt;&lt;div&gt;47. affectedRows&lt;/div&gt;&lt;div&gt;49. affectedRows&lt;/div&gt;&lt;div&gt;51. affectedRows&lt;/div&gt;&lt;div&gt;53. affectedRows&lt;/div&gt;&lt;div&gt;55. affectedRows&lt;/div&gt;&lt;div&gt;57. affectedRows&lt;/div&gt;&lt;div&gt;59. affectedRows&lt;/div&gt;&lt;div&gt;61. affectedRows&lt;/div&gt;" style="text;html=1;align=center;verticalAlign=middle;resizable=0;points=[];autosize=1;strokeColor=none;fillColor=none;" vertex="1" parent="1"><mxGeometry x="5872.91" y="4415" width="120" height="190" as="geometry"/></mxCell><mxCell id="68" style="edgeStyle=orthogonalEdgeStyle;rounded=0;orthogonalLoop=1;jettySize=auto;html=1;endArrow=none;startFill=0;exitX=0.5;exitY=0;exitDx=0;exitDy=0;entryX=0.5;entryY=0;entryDx=0;entryDy=0;" edge="1" parent="1" source="7" target="50"><mxGeometry relative="1" as="geometry"><mxPoint x="6935.09" y="4495" as="targetPoint"/><mxPoint x="5735.09" y="4500" as="sourcePoint"/><Array as="points"><mxPoint x="3910.09" y="4330"/><mxPoint x="6131.09" y="4330"/></Array></mxGeometry></mxCell><mxCell id="69" value="" style="endArrow=classic;html=1;rounded=0;" edge="1" parent="1"><mxGeometry width="50" height="50" relative="1" as="geometry"><mxPoint x="6141.09" y="4490" as="sourcePoint"/><mxPoint x="3901.09" y="4490" as="targetPoint"/><Array as="points"><mxPoint x="6141.09" y="4310"/><mxPoint x="3901.09" y="4310"/></Array></mxGeometry></mxCell><mxCell id="70" value="" style="endArrow=classic;html=1;rounded=0;dashed=1;" edge="1" parent="1"><mxGeometry width="50" height="50" relative="1" as="geometry"><mxPoint x="6845.09" y="4540" as="sourcePoint"/><mxPoint x="6611.09" y="4540" as="targetPoint"/></mxGeometry></mxCell><mxCell id="71" value="24. [Courses found (5.a)] courseList&lt;div&gt;27. [No courses found (5.b)] emptyList&lt;/div&gt;" style="text;html=1;align=center;verticalAlign=middle;resizable=0;points=[];autosize=1;strokeColor=none;fillColor=none;" vertex="1" parent="1"><mxGeometry x="6605.09" y="4545" width="230" height="40" as="geometry"/></mxCell><mxCell id="72" value="" style="endArrow=classic;html=1;rounded=0;dashed=1;" edge="1" parent="1"><mxGeometry width="50" height="50" relative="1" as="geometry"><mxPoint x="6445.09" y="4535" as="sourcePoint"/><mxPoint x="6211.09" y="4535" as="targetPoint"/></mxGeometry></mxCell><mxCell id="73" value="25. courseList&lt;div&gt;28. returnError(&quot;ไม่พบข้อมูล course&quot;)&lt;/div&gt;&lt;div&gt;63. deletionResult&lt;/div&gt;" style="text;html=1;align=center;verticalAlign=middle;resizable=0;points=[];autosize=1;strokeColor=none;fillColor=none;" vertex="1" parent="1"><mxGeometry x="6210.09" y="4530" width="220" height="60" as="geometry"/></mxCell><mxCell id="74" value="26. successfulResponse(200, courseList) &amp;lt;&amp;lt;Step 5a.2&amp;gt;&amp;gt;&lt;div&gt;29. errorResponse(404, &quot;ไม่พบข้อมูล course) &amp;lt;&amp;lt;Step 5 5b.2&amp;gt;&amp;gt;&lt;/div&gt;&lt;div&gt;64. successResponse(200, &quot;ลบ course สำเร็จ&quot;) &amp;lt;&amp;lt;Step 10a.2&amp;gt;&amp;gt;&lt;/div&gt;" style="text;html=1;align=center;verticalAlign=middle;resizable=0;points=[];autosize=1;strokeColor=none;fillColor=none;" vertex="1" parent="1"><mxGeometry x="4871.09" y="4230" width="360" height="60" as="geometry"/></mxCell></root></mxGraphModel></diagram></mxfile>